HIERARCHY
ROOT hip
{
  OFFSET 0 0 0
  CHANNELS 6 Xposition Yposition Zposition Zrotation Yrotation Xrotation
  JOINT abdomen
  {
    OFFSET 0 20.6881 -0.73152
    CHANNELS 3 Zrotation Xrotation Yrotation
    JOINT chest
    {
      OFFSET 0 11.7043 -0.48768
      CHANNELS 3 Zrotation Xrotation Yrotation
      JOINT neck
      {
        OFFSET 0 22.1894 -2.19456
        CHANNELS 3 Zrotation Xrotation Yrotation
        JOINT head
        {
          OFFSET -0.24384 7.07133 1.2192
          CHANNELS 3 Zrotation Xrotation Yrotation
          JOINT leftEye
          {
            OFFSET 4.14528 8.04674 8.04672
            CHANNELS 3 Zrotation Xrotation Yrotation
            End Site
            {
              OFFSET 1 0 0
            }
          }
          JOINT rightEye
          {
            OFFSET -3.6576 8.04674 8.04672
            CHANNELS 3 Zrotation Xrotation Yrotation
            End Site
            {
              OFFSET 1 0 0
            }
          }
        }
      }
      JOINT rCollar
      {
        OFFSET -2.68224 19.2634 -4.8768
        CHANNELS 3 Zrotation Xrotation Yrotation
        JOINT rShldr
        {
          OFFSET -8.77824 -1.95073 1.46304
          CHANNELS 3 Zrotation Xrotation Yrotation
          JOINT rForeArm
          {
            OFFSET -28.1742 -1.7115 0.48768
            CHANNELS 3 Zrotation Xrotation Yrotation
            JOINT rHand
            {
              OFFSET -22.5879 0.773209 7.07136
              CHANNELS 3 Zrotation Xrotation Yrotation
              JOINT rThumb1
              {
                OFFSET -1.2192 -0.487915 3.41376
                CHANNELS 3 Zrotation Xrotation Yrotation
                JOINT rThumb2
                {
                  OFFSET -3.37035 -0.52449 3.41376
                  CHANNELS 3 Zrotation Xrotation Yrotation
                  End Site
                  {
                    OFFSET -1.78271 -1.18214 1.43049
                  }
                }
              }
              JOINT rIndex1
              {
                OFFSET -7.75947 0.938293 5.60832
                CHANNELS 3 Zrotation Xrotation Yrotation
                JOINT rIndex2
                {
                  OFFSET -2.54057 -0.884171 1.56538
                  CHANNELS 3 Zrotation Xrotation Yrotation
                  End Site
                  {
                    OFFSET -1.62519 -0.234802 1.16502
                  }
                }
              }
              JOINT rMid1
              {
                OFFSET -8.24714 1.18213 3.41376
                CHANNELS 3 Zrotation Xrotation Yrotation
                JOINT rMid2
                {
                  OFFSET -3.10165 -0.590103 1.0647
                  CHANNELS 3 Zrotation Xrotation Yrotation
                  End Site
                  {
                    OFFSET -2.48547 -0.328903 0.83742
                  }
                }
              }
              JOINT rRing1
              {
                OFFSET -8.82822 0.546677 1.51678
                CHANNELS 3 Zrotation Xrotation Yrotation
                JOINT rRing2
                {
                  OFFSET -2.60934 -0.819778 -0.0198488
                  CHANNELS 3 Zrotation Xrotation Yrotation
                  End Site
                  {
                    OFFSET -2.33842 -0.294052 0.168128
                  }
                }
              }
              JOINT rPinky1
              {
                OFFSET -8.27202 -0.0477905 -0.4584
                CHANNELS 3 Zrotation Xrotation Yrotation
                JOINT rPinky2
                {
                  OFFSET -1.82734 -0.647385 -0.700984
                  CHANNELS 3 Zrotation Xrotation Yrotation
                  End Site
                  {
                    OFFSET -1.69225 -0.51767 -0.607171
                  }
                }
              }
            }
          }
        }
      }
      JOINT lCollar
      {
        OFFSET 2.68224 19.2634 -4.8768
        CHANNELS 3 Zrotation Xrotation Yrotation
        JOINT lShldr
        {
          OFFSET 8.77824 -1.95073 1.46304
          CHANNELS 3 Zrotation Xrotation Yrotation
          JOINT lForeArm
          {
            OFFSET 28.1742 -1.7115 0.48768
            CHANNELS 3 Zrotation Xrotation Yrotation
            JOINT lHand
            {
              OFFSET 22.5879 0.773209 7.07136
              CHANNELS 3 Zrotation Xrotation Yrotation
              JOINT lThumb1
              {
                OFFSET 1.2192 -0.487915 3.41376
                CHANNELS 3 Zrotation Xrotation Yrotation
                JOINT lThumb2
                {
                  OFFSET 3.37035 -0.52449 3.41376
                  CHANNELS 3 Zrotation Xrotation Yrotation
                  End Site
                  {
                    OFFSET 1.78271 -1.18214 1.43049
                  }
                }
              }
              JOINT lIndex1
              {
                OFFSET 7.75947 0.938293 5.60832
                CHANNELS 3 Zrotation Xrotation Yrotation
                JOINT lIndex2
                {
                  OFFSET 2.54057 -0.884171 1.56538
                  CHANNELS 3 Zrotation Xrotation Yrotation
                  End Site
                  {
                    OFFSET 1.62519 -0.234802 1.16502
                  }
                }
              }
              JOINT lMid1
              {
                OFFSET 8.24714 1.18213 3.41376
                CHANNELS 3 Zrotation Xrotation Yrotation
                JOINT lMid2
                {
                  OFFSET 3.10165 -0.590103 1.0647
                  CHANNELS 3 Zrotation Xrotation Yrotation
                  End Site
                  {
                    OFFSET 2.48547 -0.328903 0.83742
                  }
                }
              }
              JOINT lRing1
              {
                OFFSET 8.82822 0.546677 1.51678
                CHANNELS 3 Zrotation Xrotation Yrotation
                JOINT lRing2
                {
                  OFFSET 2.60934 -0.819778 -0.0198488
                  CHANNELS 3 Zrotation Xrotation Yrotation
                  End Site
                  {
                    OFFSET 2.33842 -0.294052 0.168128
                  }
                }
              }
              JOINT lPinky1
              {
                OFFSET 8.27202 -0.0477905 -0.4584
                CHANNELS 3 Zrotation Xrotation Yrotation
                JOINT lPinky2
                {
                  OFFSET 1.82734 -0.647385 -0.700984
                  CHANNELS 3 Zrotation Xrotation Yrotation
                  End Site
                  {
                    OFFSET 1.69225 -0.51767 -0.607171
                  }
                }
              }
            }
          }
        }
      }
    }
  }
  JOINT rButtock
  {
    OFFSET -8.77824 4.35084 1.2192
    CHANNELS 3 Zrotation Xrotation Yrotation
    JOINT rThigh
    {
      OFFSET 0 -1.70687 -2.19456
      CHANNELS 3 Zrotation Xrotation Yrotation
      JOINT rShin
      {
        OFFSET 0 -36.8199 0.73152
        CHANNELS 3 Zrotation Xrotation Yrotation
        JOINT rFoot
        {
          OFFSET 0.73152 -45.1104 -5.12064
          CHANNELS 3 Zrotation Xrotation Yrotation
          End Site
          {
            OFFSET -1.1221 -3.69964 12.103
          }
        }
      }
    }
  }
  JOINT lButtock
  {
    OFFSET 8.77824 4.35084 1.2192
    CHANNELS 3 Zrotation Xrotation Yrotation
    JOINT lThigh
    {
      OFFSET 0 -1.70687 -2.19456
      CHANNELS 3 Zrotation Xrotation Yrotation
      JOINT lShin
      {
        OFFSET 0 -36.8199 0.73152
        CHANNELS 3 Zrotation Xrotation Yrotation
        JOINT lFoot
        {
          OFFSET -0.73152 -45.1104 -5.12064
          CHANNELS 3 Zrotation Xrotation Yrotation
          End Site
          {
            OFFSET 1.1221 -3.69964 12.103
          }
        }
      }
    }
  }
}
MOTION
Frames:	4
Frame Time:	0.03333
0.0 0.0 0.0 0.0 0.0 0.0 0.0 0.0 0.0 0.0 0.0 0.0 0.0 0.0 0.0 0.0 0.0 0.0 0.0 0.0 0.0 0.0 0.0 0.0 0.0 0.0 0.0 0.0 0.0 0.0 0.0 0.0 0.0 0.0 0.0 0.0 0.0 0.0 0.0 0.0 0.0 0.0 0.0 0.0 0.0 0.0 0.0 0.0 0.0 0.0 0.0 0.0 0.0 0.0 0.0 0.0 0.0 0.0 0.0 0.0 0.0 0.0 0.0 0.0 0.0 0.0 0.0 0.0 0.0 0.0 0.0 0.0 0.0 0.0 0.0 0.0 0.0 0.0 0.0 0.0 0.0 0.0 0.0 0.0 0.0 0.0 0.0 0.0 0.0 0.0 0.0 0.0 0.0 0.0 0.0 0.0 0.0 0.0 0.0 0.0 0.0 0.0 0.0 0.0 0.0 0.0 0.0 0.0 0.0 0.0 0.0 0.0 0.0 0.0 0.0 0.0 0.0 0.0 0.0 0.0 0.0 0.0 0.0 0.0 0.0 0.0 0.0 0.0 0.0 0.0 0.0 0.0
-0.11720000000000001 67.66760000000001 0.0207 -179.787482 55.616681 179.260143 -2.537482 0.401341 101.02622 10.871811 -5.193987 -102.472947 7.506765 -16.230368 63.270997 -28.143512 -25.558264 -46.16777 106.991626 25.959038 -34.59778 50.206348 18.576415 38.486223 -84.890164 -45.816454 173.341352 9.811961 0.246556 3.025264 -178.24644 26.758718 -16.98538 44.40145 -60.240256 27.664553 -7.510694 -13.106642 -28.013471 -139.412787 -12.518639 66.623133 -28.963913 -64.695821 -49.297576 -30.271677 56.229955 29.810173 -3.756105 -21.808981 7.996378 -179.266272 0.176389 163.940079 98.203184 18.693954 -147.241678 139.251427 26.993666 -0.175801 74.284386 -57.299974 -71.637547 -147.091174 -3.798002 -109.619424 -64.648669 30.358046 -12.400725 139.21678 49.751728 -150.027522 0.463827 63.740289 -178.368031 -167.554422 -19.008948 -140.282627 2.004616 -11.399618 28.632316 -75.857191 -7.489386 128.427124 0.83612 -8.456232 28.471491 -165.441317 -50.343151 26.757362 22.859525 17.123391 3.111632 47.136407 58.9429 -61.439663 -107.321673 17.183786 18.971301 96.443566 -42.321573 102.920221 -117.275026 -42.271166 55.018114 174.978681 13.495322 -179.623029 0.235754 56.688481 -180.0 1.269585 57.12843 -1.511506 -3.133575 3.418366 -145.93876 -75.558887 18.758758 95.573281 20.730034 52.704455 154.557305 -0.618899 56.302906 -0.0 -5.958616 -2.353974 -89.937985 51.240851 -53.069028 -131.06394
0.07200000000000001 69.2199 -0.40220000000000006 -175.011369 2.253908 -174.84359 0.384652 -0.079729 94.781998 -7.408205 4.456822 -87.208679 -0.460139 -6.95324 2.981373 9.991074 1.036187 31.081657 6.979557 -2.61405 -41.024777 -0.134315 -0.014478 12.304191 7.707361 -26.071861 3.837929 45.711182 -73.419184 12.574225 -166.111044 51.43006 -70.202689 -0.745127 19.001802 -11.18025 -85.924228 37.126068 36.478878 17.635221 -16.061876 19.179921 -136.63637 9.47824 91.721498 -121.052702 13.061678 119.732613 -55.740449 53.777782 16.67396 178.820913 -18.356192 109.83681 27.354444 -41.022754 23.723927 -48.106891 44.627536 0.243351 -78.69974 66.684042 112.382801 10.741158 -51.411091 22.691513 91.183055 77.372383 -95.987819 -178.387286 -14.125822 -174.509392 -160.278737 -67.435303 -63.64336 164.466897 14.615405 -129.986737 178.36479 -16.584527 -90.718234 88.709413 27.993917 -16.677923 3.845502 13.633304 -22.505675 166.432801 -62.163639 -143.412024 -5.319011 29.841907 -11.669129 11.576063 27.894033 32.950515 144.177565 -17.428006 -175.959318 159.773897 22.624832 -157.77724 147.536921 -39.088445 123.340317 165.739923 42.790158 -160.133338 74.712617 21.466437 49.14864 -109.884846 27.272221 99.41042 61.497845 -38.935507 12.122408 40.143978 58.507723 -132.528682 2.19612 -2.74433 -2.71768 38.288086 -30.211599 22.386156 -3.228215 58.981016 81.045501 10.174416 -41.575307 -78.312071
-0.9440999999999999 70.3584 -1.2673 -178.113035 1.286037 -170.926478 0.51426 -5.009596 -115.619545 10.433694 1.698968 129.288943 16.021658 10.456914 58.09893 -25.787805 -5.119173 -37.246332 27.001533 -4.498971 -18.583449 4.051598 -0.558175 -15.681808 -144.146423 38.732205 147.266125 -34.436664 58.75416 29.486692 -177.266679 -9.919577 -68.81165 -10.742028 14.717838 -3.470548 17.118272 9.178223 -14.226446 -61.026754 19.207436 16.162429 -38.462956 18.065211 22.53727 -2.23116 56.457218 7.691709 -4.520273 -23.184565 -8.610249 -165.941551 -51.710158 130.581164 -59.609014 71.286769 92.011487 -154.408798 73.240794 179.809608 77.910206 37.51829 -53.222226 -63.692204 -8.91018 -7.95082 116.039672 56.275185 -119.295022 153.686492 60.583355 -153.931028 53.920792 -62.363899 125.356667 -179.630179 -13.853025 -143.242802 178.89494 -41.535133 -92.203323 91.602151 -2.120958 -45.374976 19.26512 -22.338308 20.65938 -26.250559 39.18105 -18.224953 -164.266877 -72.409038 -149.19659 169.107529 -1.229469 -163.68351 97.603237 -52.404871 98.148656 -9.423386 -87.194407 31.905974 -37.23129 82.152988 21.019063 21.693433 18.71894 -43.397051 -139.926793 71.508485 -41.575546 134.492447 45.87054 86.883841 58.584393 20.190288 -114.826532 -86.307689 -35.15713 24.079943 68.662438 44.033649 63.420589 -86.303319 7.309658 55.140527 64.188953 0.337145 93.73605 -72.436189 10.585547 175.825803
